<svg width="32" height="32" viewBox="0 0 32 32" fill="none" xmlns="http://www.w3.org/2000/svg">
<path d="M2.6665 7.99996C2.6665 7.26359 3.26346 6.66663 3.99984 6.66663H27.9998C28.7362 6.66663 29.3332 7.26359 29.3332 7.99996C29.3332 8.73633 28.7362 9.33329 27.9998 9.33329H3.99984C3.26346 9.33329 2.6665 8.73633 2.6665 7.99996Z" fill="#42ABDE"/>
<path d="M2.6665 16.0429C2.6665 15.3065 3.26346 14.7096 3.99984 14.7096H27.9998C28.7362 14.7096 29.3332 15.3065 29.3332 16.0429C29.3332 16.7793 28.7362 17.3763 27.9998 17.3763H3.99984C3.26346 17.3763 2.6665 16.7793 2.6665 16.0429Z" fill="#42ABDE"/>
<path d="M3.99984 22.7527C3.26346 22.7527 2.6665 23.3496 2.6665 24.086C2.6665 24.8223 3.26346 25.4194 3.99984 25.4194H27.9998C28.7362 25.4194 29.3332 24.8223 29.3332 24.086C29.3332 23.3496 28.7362 22.7527 27.9998 22.7527H3.99984Z" fill="#42ABDE"/>
</svg>
