<svg width="32" height="32" viewBox="0 0 32 32" fill="none" xmlns="http://www.w3.org/2000/svg">
<path d="M6.94281 25.9428C6.42211 25.4221 6.42211 24.5779 6.94281 24.0572L23.9134 7.08663C24.4341 6.56592 25.2783 6.56594 25.799 7.08663C26.3197 7.60732 26.3197 8.45153 25.799 8.97225L8.82843 25.9428C8.30773 26.4635 7.4635 26.4635 6.94281 25.9428Z" fill="#42ABDE"/>
<path d="M8.94281 6.94281C8.42211 6.42211 7.5779 6.4221 7.05719 6.94281C6.53657 7.46343 6.5365 8.30773 7.05719 8.82843L24.0278 25.799C24.5485 26.3197 25.3928 26.3196 25.9134 25.799C26.4341 25.2783 26.4341 24.4341 25.9134 23.9134L8.94281 6.94281Z" fill="#42ABDE"/>
</svg>
